{
  "accessors": [
    {
      "bufferView": 2,
      "componentType": 5126,
      "count": 9274,
      "max": [
        332.5412902832031,
        127.32499694824219,
        -68.08920288085938
      ],
      "min": [
        -347.2571105957031,
        -127.88140106201172,
        -694.86767578125
      ],
      "type": "VEC3"
    },
    {
      "bufferView": 2,
      "byteOffset": 111288,
      "componentType": 5126,
      "count": 9274,
      "max": [
        0.999326229095459,
        0.9999948143959045,
        0.9902446269989014
      ],
      "min": [
        -0.9997733235359192,
        -0.9999923706054688,
        -0.9991781115531921
      ],
      "type": "VEC3"
    },
    {
      "bufferView": 1,
      "componentType": 5126,
      "count": 9274,
      "max": [
        0.9235000014305115,
        0.9747999906539917
      ],
      "min": [
        0.1437000036239624,
        0.03999999910593033
      ],
      "type": "VEC2"
    },
    {
      "bufferView": 0,
      "componentType": 5125,
      "count": 52134,
      "type": "SCALAR"
    },
    {
      "bufferView": 2,
      "byteOffset": 222576,
      "componentType": 5126,
      "count": 505,
      "max": [
        -6.707499980926514,
        -54.25230026245117,
        -120.84850311279297
      ],
      "min": [
        -13.640999794006348,
        -126.56169891357422,
        -662.583984375
      ],
      "type": "VEC3"
    },
    {
      "bufferView": 2,
      "byteOffset": 228636,
      "componentType": 5126,
      "count": 505,
      "max": [
        0.08247944712638855,
        0.9999814033508301,
        0.9729373455047607
      ],
      "min": [
        -0.1671518236398697,
        0.16459767520427704,
        -0.9858126640319824
      ],
      "type": "VEC3"
    },
    {
      "bufferView": 1,
      "byteOffset": 74192,
      "componentType": 5126,
      "count": 505,
      "max": [
        0.9347180128097534,
        0.99853515625
      ],
      "min": [
        0,
        0
      ],
      "type": "VEC2"
    },
    {
      "bufferView": 0,
      "byteOffset": 208536,
      "componentType": 5125,
      "count": 1722,
      "type": "SCALAR"
    },
    {
      "bufferView": 2,
      "byteOffset": 234696,
      "componentType": 5126,
      "count": 1,
      "max": [
        -3.1054000854492188,
        -67.66179656982422,
        -563.05859375
      ],
      "min": [
        -3.1054000854492188,
        -67.66179656982422,
        -563.05859375
      ],
      "type": "VEC3"
    },
    {
      "bufferView": 2,
      "byteOffset": 234708,
      "componentType": 5126,
      "count": 51811,
      "max": [
        189.50497436523438,
        103.58100128173828,
        -523.5026245117188
      ],
      "min": [
        -206.22303771972656,
        -124.293701171875,
        -1029.7353515625
      ],
      "type": "VEC3"
    },
    {
      "bufferView": 2,
      "byteOffset": 856440,
      "componentType": 5126,
      "count": 51811,
      "max": [
        0.9999957084655762,
        0.9999792575836182,
        0.999498724937439
      ],
      "min": [
        -0.999994158744812,
        -0.9999932050704956,
        -0.9999319314956665
      ],
      "type": "VEC3"
    },
    {
      "bufferView": 1,
      "byteOffset": 78232,
      "componentType": 5126,
      "count": 51811,
      "max": [
        0.9911999702453613,
        0.9706000089645386
      ],
      "min": [
        0.013299999758601189,
        0.058400001376867294
      ],
      "type": "VEC2"
    },
    {
      "bufferView": 0,
      "byteOffset": 215424,
      "componentType": 5125,
      "count": 299868,
      "type": "SCALAR"
    }
  ],
  "asset": {
    "extras": {
      "author": "DT Style SPORTWEAR X CICLING (https://sketchfab.com/DT_Style)",
      "license": "CC-BY-4.0 (http://creativecommons.org/licenses/by/4.0/)",
      "source": "https://sketchfab.com/3d-models/23-random-ed617eac3b234c94ba2cad39ba28eeb9",
      "title": "23-RANDOM"
    },
    "generator": "Sketchfab-16.7.0",
    "version": "2.0"
  },
  "bufferViews": [
    {
      "buffer": 0,
      "byteLength": 1414896,
      "name": "floatBufferViews",
      "target": 34963,
      "byteOffset": 0
    },
    {
      "buffer": 0,
      "byteLength": 492720,
      "byteOffset": 1414896,
      "byteStride": 8,
      "name": "floatBufferViews",
      "target": 34962
    },
    {
      "buffer": 0,
      "byteLength": 1478172,
      "byteOffset": 1907616,
      "byteStride": 12,
      "name": "floatBufferViews",
      "target": 34962
    }
  ],
  "buffers": [
    {
      "uri": "3_data.bin",
      "byteLength": 3385788
    }
  ],
  "images": [
    {
      "uri": "3_img0.jpg"
    }
  ],
  "materials": [
    {
      "doubleSided": true,
      "name": "19-Bianca_Gabellini_06122021",
      "pbrMetallicRoughness": {
        "baseColorTexture": {
          "index": 0
        },
        "metallicFactor": 0,
        "roughnessFactor": 0.6
      }
    },
    {
      "doubleSided": true,
      "name": "Gesso",
      "pbrMetallicRoughness": {
        "baseColorFactor": [
          0.021807634948988765,
          0.021464924994594382,
          0.021464924994594382,
          1
        ],
        "metallicFactor": 0,
        "roughnessFactor": 0.6
      }
    },
    {
      "doubleSided": true,
      "name": "diffuse_Black",
      "pbrMetallicRoughness": {
        "metallicFactor": 0,
        "roughnessFactor": 0.6
      }
    },
    {
      "doubleSided": true,
      "name": "salopette",
      "pbrMetallicRoughness": {
        "baseColorTexture": {
          "index": 0
        },
        "metallicFactor": 0,
        "roughnessFactor": 0.6
      }
    }
  ],
  "meshes": [
    {
      "name": "Object_0",
      "primitives": [
        {
          "attributes": {
            "NORMAL": 1,
            "POSITION": 0,
            "TEXCOORD_0": 2
          },
          "indices": 3,
          "material": 0,
          "mode": 4
        }
      ]
    },
    {
      "name": "Object_1",
      "primitives": [
        {
          "attributes": {
            "NORMAL": 5,
            "POSITION": 4,
            "TEXCOORD_0": 6
          },
          "indices": 7,
          "material": 1,
          "mode": 4
        }
      ]
    },
    {
      "name": "Object_2",
      "primitives": [
        {
          "attributes": {
            "POSITION": 8
          },
          "material": 2,
          "mode": 0
        }
      ]
    },
    {
      "name": "Object_3",
      "primitives": [
        {
          "attributes": {
            "NORMAL": 10,
            "POSITION": 9,
            "TEXCOORD_0": 11
          },
          "indices": 12,
          "material": 3,
          "mode": 4
        }
      ]
    }
  ],
  "nodes": [
    {
      "children": [
        1
      ],
      "matrix": [
        1,
        0,
        0,
        0,
        0,
        2.220446049250313e-16,
        -1,
        0,
        0,
        1,
        2.220446049250313e-16,
        0,
        0,
        0,
        0,
        1
      ],
      "name": "Sketchfab_model"
    },
    {
      "children": [
        2,
        3,
        4,
        5
      ],
      "name": "23-monocolore-Viola.obj.cleaner.materialmerger.gles"
    },
    {
      "mesh": 0,
      "name": "Object_2"
    },
    {
      "mesh": 1,
      "name": "Object_3"
    },
    {
      "mesh": 2,
      "name": "Object_4"
    },
    {
      "mesh": 3,
      "name": "Object_5"
    }
  ],
  "samplers": [
    {
      "magFilter": 9729,
      "minFilter": 9987,
      "wrapS": 10497,
      "wrapT": 10497
    }
  ],
  "scene": 0,
  "scenes": [
    {
      "name": "Sketchfab_Scene",
      "nodes": [
        0
      ]
    }
  ],
  "textures": [
    {
      "sampler": 0,
      "source": 0
    }
  ]
}