{
  "accessors": [
    {
      "bufferView": 2,
      "componentType": 5126,
      "count": 1766,
      "max": [
        24.320148468017578,
        -132.10848999023438,
        1041.622314453125
      ],
      "min": [
        4.394420146942139,
        -135.47804260253906,
        1021.6416625976562
      ],
      "type": "VEC3"
    },
    {
      "bufferView": 2,
      "byteOffset": 21192,
      "componentType": 5126,
      "count": 1766,
      "max": [
        0.9998907446861267,
        0.9998905062675476,
        1
      ],
      "min": [
        -0.9998905062675476,
        -0.9998907446861267,
        -1
      ],
      "type": "VEC3"
    },
    {
      "bufferView": 1,
      "componentType": 5126,
      "count": 1766,
      "max": [
        0.7861930131912231,
        0.6147279739379883
      ],
      "min": [
        0.7253699898719788,
        0.555188000202179
      ],
      "type": "VEC2"
    },
    {
      "bufferView": 0,
      "componentType": 5125,
      "count": 10368,
      "type": "SCALAR"
    },
    {
      "bufferView": 2,
      "byteOffset": 42384,
      "componentType": 5126,
      "count": 10632,
      "max": [
        151.69825744628906,
        125.89666748046875,
        1019.925537109375
      ],
      "min": [
        -162.50108337402344,
        -81.61878204345703,
        966.1859741210938
      ],
      "type": "VEC3"
    },
    {
      "bufferView": 2,
      "byteOffset": 169968,
      "componentType": 5126,
      "count": 10632,
      "max": [
        0.9997723698616028,
        0.9999892115592957,
        0.9995979070663452
      ],
      "min": [
        -0.9999481439590454,
        -0.9995434284210205,
        -0.9997296333312988
      ],
      "type": "VEC3"
    },
    {
      "bufferView": 1,
      "byteOffset": 14128,
      "componentType": 5126,
      "count": 10632,
      "max": [
        0.7121620178222656,
        0.6146000027656555
      ],
      "min": [
        0.651934027671814,
        0.5538250207901001
      ],
      "type": "VEC2"
    },
    {
      "bufferView": 0,
      "byteOffset": 41472,
      "componentType": 5125,
      "count": 42876,
      "type": "SCALAR"
    },
    {
      "bufferView": 2,
      "byteOffset": 297552,
      "componentType": 5126,
      "count": 18414,
      "max": [
        251.9627227783203,
        131.432373046875,
        1090.6297607421875
      ],
      "min": [
        -253.64109802246094,
        -133.6396484375,
        62.210609436035156
      ],
      "type": "VEC3"
    },
    {
      "bufferView": 2,
      "byteOffset": 518520,
      "componentType": 5126,
      "count": 18414,
      "max": [
        0.9999318718910217,
        0.9999958872795105,
        0.9978393316268921
      ],
      "min": [
        -0.9999937415122986,
        -0.9999939799308777,
        -0.9982535243034363
      ],
      "type": "VEC3"
    },
    {
      "bufferView": 1,
      "byteOffset": 99184,
      "componentType": 5126,
      "count": 18414,
      "max": [
        0.9849330186843872,
        0.8383190035820007
      ],
      "min": [
        0.015068000182509422,
        0.015068000182509422
      ],
      "type": "VEC2"
    },
    {
      "bufferView": 0,
      "byteOffset": 212976,
      "componentType": 5125,
      "count": 102405,
      "type": "SCALAR"
    },
    {
      "bufferView": 2,
      "byteOffset": 739488,
      "componentType": 5126,
      "count": 18414,
      "max": [
        248.921875,
        128.25625610351562,
        1090.1336669921875
      ],
      "min": [
        -250.99452209472656,
        -129.45970153808594,
        62.925086975097656
      ],
      "type": "VEC3"
    },
    {
      "bufferView": 2,
      "byteOffset": 960456,
      "componentType": 5126,
      "count": 18414,
      "max": [
        0.9999903440475464,
        0.9999937415122986,
        0.998291552066803
      ],
      "min": [
        -0.999933123588562,
        -0.999995768070221,
        -0.9978497624397278
      ],
      "type": "VEC3"
    },
    {
      "bufferView": 1,
      "byteOffset": 246496,
      "componentType": 5126,
      "count": 18414,
      "max": [
        0.9849330186843872,
        0.8383190035820007
      ],
      "min": [
        0.015068000182509422,
        0.015068000182509422
      ],
      "type": "VEC2"
    },
    {
      "bufferView": 0,
      "byteOffset": 622596,
      "componentType": 5125,
      "count": 102405,
      "type": "SCALAR"
    },
    {
      "bufferView": 2,
      "byteOffset": 1181424,
      "componentType": 5126,
      "count": 31713,
      "max": [
        251.9627227783203,
        130.45333862304688,
        1092.441650390625
      ],
      "min": [
        -253.64109802246094,
        -133.6396484375,
        60.982234954833984
      ],
      "type": "VEC3"
    },
    {
      "bufferView": 2,
      "byteOffset": 1561980,
      "componentType": 5126,
      "count": 31713,
      "max": [
        0.9999995827674866,
        0.9999826550483704,
        0.999904990196228
      ],
      "min": [
        -0.9999989867210388,
        -0.999971866607666,
        -0.9999866485595703
      ],
      "type": "VEC3"
    },
    {
      "bufferView": 1,
      "byteOffset": 393808,
      "componentType": 5126,
      "count": 31713,
      "max": [
        0.9849330186843872,
        0.8383190035820007
      ],
      "min": [
        0.015068000182509422,
        0.015068000182509422
      ],
      "type": "VEC2"
    },
    {
      "bufferView": 0,
      "byteOffset": 1032216,
      "componentType": 5125,
      "count": 162936,
      "type": "SCALAR"
    }
  ],
  "asset": {
    "extras": {
      "author": "Obridje (https://sketchfab.com/Obridje)",
      "license": "CC-BY-4.0 (http://creativecommons.org/licenses/by/4.0/)",
      "source": "https://sketchfab.com/3d-models/jeans-denim-pants-8825d68eae214fa58a34742e5bfa0ab3",
      "title": "Jeans denim pants"
    },
    "generator": "Sketchfab-15.17.0",
    "version": "2.0"
  },
  "bufferViews": [
    {
      "buffer": 0,
      "byteLength": 1683960,
      "name": "floatBufferViews",
      "target": 34963,
      "byteOffset": 0
    },
    {
      "buffer": 0,
      "byteLength": 647512,
      "byteOffset": 1683960,
      "byteStride": 8,
      "name": "floatBufferViews",
      "target": 34962
    },
    {
      "buffer": 0,
      "byteLength": 1942536,
      "byteOffset": 2331472,
      "byteStride": 12,
      "name": "floatBufferViews",
      "target": 34962
    }
  ],
  "buffers": [
    {
      "uri": "pants_data.bin",
      "byteLength": 4274008
    }
  ],
  "extensionsUsed": [
    "KHR_materials_specular"
  ],
  "images": [
    {
      "uri": "pants_img0.png"
    }
  ],
  "materials": [
    {
      "doubleSided": true,
      "name": "BTN_FABRIC_FRONT_7363545",
      "pbrMetallicRoughness": {
        "metallicFactor": 0,
        "roughnessFactor": 0.6
      }
    },
    {
      "doubleSided": true,
      "extensions": {
        "KHR_materials_specular": {
          "specularColorFactor": [
            1,
            1,
            1
          ],
          "specularFactor": 0.4617142857142857
        }
      },
      "name": "BTN_FABRIC_FRONT_7363562",
      "pbrMetallicRoughness": {
        "metallicFactor": 0,
        "roughnessFactor": 0.5165714285714286
      }
    },
    {
      "doubleSided": true,
      "emissiveTexture": {
        "index": 0
      },
      "name": "Denim_Raw_FRONT_7645157",
      "pbrMetallicRoughness": {
        "baseColorTexture": {
          "index": 0
        },
        "metallicFactor": 0,
        "roughnessFactor": 0.9827475502465659
      }
    }
  ],
  "meshes": [
    {
      "name": "Object_0",
      "primitives": [
        {
          "attributes": {
            "NORMAL": 1,
            "POSITION": 0,
            "TEXCOORD_0": 2
          },
          "indices": 3,
          "material": 0,
          "mode": 4
        }
      ]
    },
    {
      "name": "Object_1",
      "primitives": [
        {
          "attributes": {
            "NORMAL": 5,
            "POSITION": 4,
            "TEXCOORD_0": 6
          },
          "indices": 7,
          "material": 1,
          "mode": 4
        }
      ]
    },
    {
      "name": "Object_2",
      "primitives": [
        {
          "attributes": {
            "NORMAL": 9,
            "POSITION": 8,
            "TEXCOORD_0": 10
          },
          "indices": 11,
          "material": 2,
          "mode": 4
        }
      ]
    },
    {
      "name": "Object_3",
      "primitives": [
        {
          "attributes": {
            "NORMAL": 13,
            "POSITION": 12,
            "TEXCOORD_0": 14
          },
          "indices": 15,
          "material": 2,
          "mode": 4
        }
      ]
    },
    {
      "name": "Object_4",
      "primitives": [
        {
          "attributes": {
            "NORMAL": 17,
            "POSITION": 16,
            "TEXCOORD_0": 18
          },
          "indices": 19,
          "material": 2,
          "mode": 4
        }
      ]
    }
  ],
  "nodes": [
    {
      "children": [
        1
      ],
      "matrix": [
        1,
        0,
        0,
        0,
        0,
        2.220446049250313e-16,
        -1,
        0,
        0,
        1,
        2.220446049250313e-16,
        0,
        0,
        0,
        0,
        1
      ],
      "name": "Sketchfab_model"
    },
    {
      "children": [
        2,
        3,
        4,
        5,
        6
      ],
      "name": "JEANS.obj.cleaner.materialmerger.gles"
    },
    {
      "mesh": 0,
      "name": "Object_2"
    },
    {
      "mesh": 1,
      "name": "Object_3"
    },
    {
      "mesh": 2,
      "name": "Object_4"
    },
    {
      "mesh": 3,
      "name": "Object_5"
    },
    {
      "mesh": 4,
      "name": "Object_6"
    }
  ],
  "samplers": [
    {
      "magFilter": 9729,
      "minFilter": 9987,
      "wrapS": 10497,
      "wrapT": 10497
    }
  ],
  "scene": 0,
  "scenes": [
    {
      "name": "Sketchfab_Scene",
      "nodes": [
        0
      ]
    }
  ],
  "textures": [
    {
      "sampler": 0,
      "source": 0
    }
  ]
}